PathFileType	4	(X/Y/Z)	C:/Users/beibeiliu/ov580/test_trc/User2\sequence.9_training_dense_left.trc
DataRate	CameraRate	NumFrames	NumMarkers	Units	OrigDataRate	OrigDataStartFrame	OrigNumFrames
120	120	11	19	mm	120	58	86
Frame#	Time	ThumbCMC			ThumbMCP			ThumbIP			ThumbTip			IndexMCP			IndexPIP			IndexTip			MiddleMCP			MiddlePIP			MiddleTip			RingMCP			RingPIP			RingTip			PinkyMCP			PinkyPIP			PinkyTip			BackHand1			BackHand2			BackHand3	
		X0	Y0	Z0	X1	Y1	Z1	X2	Y2	Z2	X3	Y3	Z3	X4	Y4	Z4	X5	Y5	Z5	X6	Y6	Z6	X7	Y7	Z7	X8	Y8	Z8	X9	Y9	Z9	X10	Y10	Z10	X11	Y11	Z11	X12	Y12	Z12	X13	Y13	Z13	X14	Y14	Z14	X15	Y15	Z15	X16	Y16	Z16	X17	Y17	Z17	X18	Y18	Z18	
57	0.475	-166.523	120.267	-23.0324	-143.525	124.056	-46.0006	-112.772	106.683	-60.6807	-91.9718	95.9625	-66.0397	-110.11	70.9598	-72.1773	-89.4165	58.074	-80.8656	-67.2698	46.2483	-91.9406	-109.669	47.5669	-67.1911	-86.8655	38.0429	-75.2882	-59.1908	21.6787	-89.8362	-113.495	34.2728	-53.2838	-92.1769	24.8159	-62.4683	-70.1023	16.8195	-72.1021	-127.909	25.7826	-29.3254	-104.485	14.4394	-41.1668	-88.2203	5.84558	-53.7457	-167.949	50.6284	-26.9315	-195.809	65.7895	-17.7224	-176.53	88.2973	-38.9875	
58	0.483333	-177.964	122.035	-26.8165	-155.712	126.394	-49.4603	-125.937	119.034	-65.6894	-100.677	108.121	-72.7427	-116.869	80.6386	-74.3643	-93.0712	72.8229	-84.7122	-65.807	62.2783	-97.8191	-110.136	58.6479	-68.4785	-79.2973	53.1616	-81.4216	-54.6501	44.1799	-95.6482	-111.511	43.9587	-53.7662	-85.0592	38.5568	-63.7799	-63.2351	36.1956	-75.237	-118.738	33.1556	-31.7747	-96.3103	31.2569	-42.6334	-75.1859	24.3648	-57.4641	-163.226	53.2348	-31.9393	-194.648	58.3396	-14.808	-179.728	84.0857	-40.6116	
59	0.491667	-187.719	116.049	-27.4549	-167.807	123.766	-52.7428	-137.536	120.668	-70.2077	-111.613	114.174	-77.007	-119.291	85.7953	-82.0736	-95.5048	84.2405	-94.9646	-74.0123	76.8944	-102.419	-108.111	64.2854	-74.2878	-84.7002	65.922	-86.0017	-56.7662	58.6624	-99.4359	-105.063	51.2014	-58.713	-81.3969	53.0602	-70.2479	-56.851	50.0526	-84.8365	-112.836	40.9653	-32.9369	-85.7302	40.7691	-48.1809	-69.7056	41.1461	-60.2484	-162.223	46.308	-27.4205	-189.867	47.9527	-13.5226	-183.707	80.4641	-42.1009	
60	0.5	-194.83	106.677	-27.3648	-179.593	116.273	-54.0253	-146.864	117.07	-77.0313	-125.053	115.433	-83.0205	-130.288	85.1885	-81.6354	-106.092	84.7227	-96.7431	-79.0658	81.2564	-112.589	-114.003	70.6225	-80.2747	-89.4085	72.0953	-91.281	-62.5934	72.3206	-113.322	-105.512	55.802	-62.5329	-82.0381	58.4827	-74.6237	-62.5408	63.2844	-91.3691	-108.347	47.394	-38.3463	-85.1531	48.7255	-51.6073	-69.5262	47.8906	-68.0709	-155.205	45.9383	-31.2044	-185.309	43.4083	-9.92087	-182.422	69.0933	-36.92	
61	0.508333	-197.734	97.9696	-26.1512	-188.409	109.293	-55.1765	-161.774	113.775	-79.6336	-136.921	114.001	-93.0102	-137.298	79.4916	-84.7537	-115.439	81.6723	-104.206	-95.3112	83.9226	-123.738	-118.165	69.2134	-85.6734	-94.295	72.9042	-102.578	-73.3318	74.5984	-124.04	-107.005	55.205	-66.038	-88.2473	62.3618	-84.5537	-66.5623	65.4865	-103.661	-103.29	46.9561	-44.5107	-85.6207	53.3646	-62.1788	-72.3125	57.0691	-79.9699	-149.764	41.9447	-29.6365	-174.996	37.8974	-7.47498	-187.599	63.4465	-36.074	
62	0.516667	-199.259	90.7328	-21.0464	-193.304	98.9173	-54.6568	-173.672	104.22	-79.2855	-149.767	103.97	-97.2928	-146.884	72.9093	-91.815	-131.435	74.7619	-111.483	-108.537	75.2305	-133.32	-128.97	63.1671	-90.081	-109.069	69.271	-114.552	-89.0133	67.3356	-134.983	-112.227	53.4386	-75.2702	-99.489	59.6494	-94.7869	-79.7719	64.0251	-119.042	-106.631	47.7161	-51.164	-90.8282	53.0912	-71.746	-79.5817	53.8606	-93.8204	-153.011	38.5951	-26.9601	-170.988	35.6076	-3.57135	-185.294	56.3802	-31.2077	
63	0.525	-199.935	86.0903	-17.3736	-201.319	92.5325	-50.065	-184.283	94.3361	-79.9683	-163.623	94.344	-99.4126	-160.62	65.2256	-92.0534	-145.72	64.7229	-117.042	-130.202	63.8454	-140.887	-139.535	54.6263	-94.2421	-126.431	58.7692	-117.75	-111.325	58.5824	-145.847	-125.229	47.5733	-78.0494	-112.132	52.7714	-103.308	-98.0253	54.0314	-127.027	-116.244	44.8622	-55.4105	-101.06	47.6494	-78.7733	-96.2748	49.9275	-104.305	-154.888	37.0177	-27.4641	-166.882	29.1393	2.92614	-188.868	51.1499	-29.1294	
64	0.533333	-204.795	82.6391	-14.4868	-213.198	90.5714	-44.8883	-199.773	86.2696	-83.3944	-182.94	86.1497	-100.054	-178.553	55.3063	-92.7183	-169.116	52.2794	-119.212	-160.474	50.3122	-141.581	-162.421	45.3979	-95.9798	-148.688	45.0743	-123.857	-137.953	40.416	-151.358	-140.864	37.2986	-83.9321	-133.319	39.9339	-107.11	-125.447	40.9614	-135.807	-130.574	39.486	-62.3396	-120.685	38.8878	-87.0673	-114.661	34.9421	-108.535	-162.746	32.3018	-26.4268	-172.583	31.2577	4.173	-196.876	50.6893	-23.0376	
65	0.541667	-219.529	83.5689	-12.2557	-229.202	84.7196	-45.5174	-223.493	83.6184	-76.665	-211.715	77.2771	-101.208	-209.421	47.8246	-85.4172	-201.193	39.5612	-114.713	-195.527	30.499	-141.325	-192.258	34.4586	-94.2314	-181.596	28.6515	-122.216	-175.499	20.3686	-147.297	-172.892	29.5513	-85.8094	-166.019	26.3348	-111.509	-160.562	21.9129	-138.015	-155.347	29.5058	-68.1272	-147.092	25.274	-90.7882	-152.295	22.0061	-114.603	-181.635	30.0054	-22.9973	-186.235	27.2588	4.82274	-213.145	46.194	-16.6872	
66	0.55	-238.002	85.9037	-10.7916	-251.633	88.6966	-40.5477	-249.659	79.6995	-75.9843	-242.806	71.6269	-101.381	-243.01	41.9733	-79.4108	-241.669	30.2127	-106.934	-239.978	18.3787	-133.579	-227.312	21.8205	-88.2372	-227.371	16.6294	-113.378	-223.298	2.47974	-145.154	-208.236	15.5189	-81.5881	-205.52	7.37548	-106.199	-206.987	4.69301	-132.406	-187.446	15.0512	-62.2972	-187.549	11.2477	-89.5047	-188.465	2.23079	-112.661	-210.402	24.3882	-19.4824	-209.115	27.4784	8.47495	-237.741	46.9488	-10.8777	
67	0.558333	-246.605	89.9748	-10.2525	-258.528	94.4462	-39.2977	-264.099	84.7222	-75.7776	-256.197	70.2899	-98.3222	-262.796	42.4744	-75.7901	-267.894	32.5822	-101.488	-272.541	19.4984	-126.069	-253.591	21.9149	-82.4268	-257.316	11.7775	-111.146	-260.417	-1.79978	-136.678	-237.875	10.9408	-76.7924	-240.424	2.53763	-104.584	-245.037	-2.69713	-130.775	-217.062	5.73995	-64.5739	-220.168	-0.370827	-89.6854	-227.847	-4.74734	-113.612	-232.615	21.3903	-17.245	-229.275	28.5997	9.66324	-252.928	52.0018	-9.15824	
